# xmcd
# 
# Track frame offsets:
#     182
#     14112
#     48432
#     65210
#     100295
#     139892
#     164030
#     199250
#     214772
#     243622
#     271595
# 
# Disc length: 4349
# 
# Revision: 4
# Processed by: cddbd v1.5.2PL0 Copyright (c) Steve Scherf et al.
# Submitted via: fre:ac v1.0.31
# 
DISCID=b010fb0b
DTITLE=Jimi Hendrix - Blues
DYEAR=1994
DGENRE=Blues
TTITLE0=Hear My Train A Comin' (Acoustic)
TTITLE1=Born Under A Bad Sign
TTITLE2=Red House
TTITLE3=Catfish Blues
TTITLE4=Voodoo Chile Blues
TTITLE5=Mannish Boy
TTITLE6=Once I Had A Woman
TTITLE7=Bleeding Heart
TTITLE8=Jelly 292
TTITLE9=Electric Church Red House
TTITLE10=Hear My Train A Comin' (Electric)
EXTD=
EXTT0=
EXTT1=
EXTT2=
EXTT3=
EXTT4=
EXTT5=
EXTT6=
EXTT7=
EXTT8=
EXTT9=
EXTT10=
PLAYORDER=
